<svg width="64" height="64" xmlns="http://www.w3.org/2000/svg" xmlns:xlink="http://www.w3.org/1999/xlink">
  <title>Account photo (placeholder)</title>
  <defs>
    <path d="M27.815 43.202c-4.8-.546-7.348-2.056-9.5-6.458a92.36 92.36 0 0 0-4.556-8.26c-1.725-2.789-3.524-5.378-5.414-8.044-2.615-3.69-2.725-5.919-1.72-10.072.86-3.564-.069-6.88-.75-10.292C2.035 5.16.063 11.677.115 18.166c.11 13.57 12.86 27.565 25.743 30.83 7.112 1.804 13.775.803 19.478-2.023a30.652 30.652 0 0 0 4.657-2.864c-7.401.018-14.744-.06-22.178-.907" id="a"/>
  </defs>
  <g fill="none" fill-rule="evenodd">
    <path d="M52.522 8.703C40.332.1 28.067-4.838 13.005 7.611c-.364.21-.719.434-1.069.663-2.366 1.548-4.39 3.488-6.06 5.7.681 3.41 1.612 6.726.75 10.289-1.006 4.153-.896 6.38 1.722 10.07 1.892 2.666 3.692 5.255 5.42 8.043a92.308 92.308 0 0 1 4.559 8.258c2.154 4.402 4.705 5.91 9.508 6.457 7.442.847 14.79.924 22.2.907 15.284-11.334 20.671-36.463 2.487-49.295" fill="#E6E8EB"/>
    <g transform="translate(0 13.895)">
      <mask id="b" fill="#fff">
        <use xlink:href="#a"/>
      </mask>
      <use fill="#D5D9E0" xlink:href="#a"/>
      <path d="M6.505 49.323c1.508-.949 3.02-1.899 4.477-2.925 1.24-.871 2.445-1.789 3.685-2.66 1.023-.719 2.041-1.446 3.086-2.132a10.808 10.808 0 0 1 2.02-1.034c1.166-.464 2.452-.666 3.565-1.268.543-.294 1.003-.374 1.61-.374.261 0 .559-.012.805-.112.243-.097.441-.291.666-.42.385-.218.76-.152 1.184-.155.657-.006 1.19-.378 1.775-.621.15-.063.315-.096.476-.135.38-.091.737-.216 1.094-.375.586-.262 1.125-.627 1.698-.918.562-.284 1.129-.56 1.696-.835.715-.347 1.46-.591 2.203-.868 1.073-.401 2.14-.837 3.202-1.267 2.028-.82 3.918-1.924 5.87-2.906 1.783-.897 3.631-1.678 5.45-2.502.703-.319 1.39-.686 2.105-.98.424-.174.821-.392 1.24-.573.922-.398 1.832-.805 2.766-1.176.579-.23 1.153-.549 1.797-.43.264.049.464.228.612.45.286.429.476.958.66 1.435.496 1.295 1.155 2.52 1.75 3.77.428.902.992 1.821 1.227 2.8.044.187.179.585.14.776-.023.109-.075.118-.158.18a1.398 1.398 0 0 1-.51.188l-.576.222c-.562.228-1.112.506-1.67.749-.779.34-1.566.66-2.336 1.023a123.72 123.72 0 0 0-3.43 1.693c-.684.35-1.365.703-2.056 1.04-.43.21-.82.41-1.285.526-.31.078-.59.16-.838.375-.417.36-.684.865-1.08 1.244-.452.434-.991.771-1.56 1.025-.927.413-1.972.443-2.948.686-1.289.322-2.49.796-3.683 1.37-.686.33-1.372.63-2.084.906-.62.24-1.203.558-1.822.806-.646.258-1.308.438-1.957.699-.551.22-1.118.418-1.69.575-.628.173-1.282.202-1.92.33-1.153.231-2.296.562-3.354 1.082-.84.412-1.68.88-2.55 1.22-.342.132-.685.262-1.025.4-.526.214-.98.553-1.47.836a6.376 6.376 0 0 1-1.914.748c-.805.164-1.63.044-2.439.203a14.36 14.36 0 0 0-2.58.74c-.873.347-1.744.672-2.633.975-1.03.35-2.091.61-3.132.926-.42.128-.875.252-1.286.409-.192.073-.345.18-.562.136-.257-.052-.404-.232-.505-.463-.236-.541-.39-1.097-.54-1.667a31.16 31.16 0 0 0-1.156-3.467M-27.003 36.663c.197-.06.347-.214.52-.32.43-.268.898-.49 1.354-.706.536-.253 1.018-.557 1.517-.876.8-.51 1.64-.932 2.479-1.37.935-.488 1.83-1.043 2.8-1.454.448-.19.888-.401 1.34-.581.562-.224 1.143-.37 1.701-.613a45.515 45.515 0 0 0 3.737-1.832c1.066-.585 2.193-.934 3.35-1.3 1.108-.352 2.262-.664 3.33-1.123a19.317 19.317 0 0 0 3.368-1.841c1.282-.889 2.78-1.534 4.166-2.238.8-.407 1.623-.753 2.448-1.102 1.2-.507 2.375-1.093 3.53-1.695 1.027-.536 2.032-1.114 3.038-1.688.908-.518 1.844-.972 2.762-1.471.767-.417 1.503-.888 2.275-1.296.763-.404 1.55-.78 2.324-1.161.817-.403 1.68-.672 2.54-.964 1.193-.406 2.39-.832 3.55-1.33 1.308-.563 2.578-1.21 3.847-1.854.618-.313 1.268-.55 1.877-.882.742-.405 1.456-.854 2.191-1.27.658-.372 1.334-.714 2.004-1.064.692-.363 1.364-.773 2.077-1.093.37-.166.828-.467 1.237-.51.264-.028.586.058.85.085.601.063 1.309.122 1.902-.007a2.35 2.35 0 0 0 .882-.38c.218-.153.44-.445.693-.521.19.122.081.315.074.489-.007.193.011.398.054.586.118.524.5.974.799 1.407.421.61.832 1.155 1.116 1.84.145.35.384.628.533.984.265.635.54 1.242.872 1.844.36.654.628 1.344 1 1.994.249.433.506.872.784 1.285.192.286.34.58.538.865.133.19.204.417.293.63.091.216.25.455.282.688.058.432-.394.515-.73.585-.724.151-1.378.37-2.016.748-1.286.763-2.507 1.696-3.884 2.283-.598.255-1.176.484-1.702.87-.685.504-1.397.93-2.13 1.359-.61.358-1.192.705-1.842.985-.217.094-.43.215-.664.262-.16.032-.295.032-.446.1-.732.334-1.412.862-2.12 1.252a71.956 71.956 0 0 1-4.397 2.22c-3.016 1.403-6.054 2.771-9.13 4.043-1.366.565-2.75 1.067-4.11 1.65a54.087 54.087 0 0 1-4.022 1.561c-1.183.4-2.363.786-3.552 1.169-1.507.484-2.974 1.09-4.468 1.616-2.871 1.012-5.657 2.257-8.514 3.302-.67.244-1.308.553-1.965.826-.688.285-1.4.509-2.102.759-.793.282-1.581.576-2.382.836-1.017.33-2.06.566-3.075.9-1.086.356-2.183.698-3.28 1.02-.807.237-1.675.652-2.322 1.198-.19.16-.41.477-.673.334-.163-.088-.381-.398-.518-.533-.642-.638-1.295-1.286-1.896-1.964-.552-.625-.91-1.436-1.164-2.223-.153-.473-.115-1.002-.29-1.466-.147-.385-.217-.762-.382-1.144-.06-.14-.108-.294-.179-.428-.093-.18-.24-.31-.328-.494a12.605 12.605 0 0 0-.532-.973c-.211-.358-.439-.697-.66-1.049M-31.412 18.497c1.865-1.347 3.733-2.697 5.526-4.14 1.524-1.226 3.002-2.508 4.527-3.733 1.258-1.011 2.51-2.032 3.8-3.004.817-.615 1.598-1.062 2.516-1.499 1.463-.696 3.103-1.062 4.487-1.931.675-.424 1.262-.564 2.043-.615.337-.023.72-.063 1.029-.211.304-.145.544-.412.823-.596.478-.314.966-.26 1.512-.3.846-.062 1.502-.586 2.236-.948.188-.093.397-.149.6-.212.483-.15.933-.34 1.38-.575C-.2.346.464-.168 1.177-.59a142.73 142.73 0 0 1 2.117-1.218c.892-.506 1.832-.882 2.765-1.3 1.35-.607 2.688-1.257 4.021-1.9 2.545-1.225 4.889-2.804 7.321-4.231 2.224-1.305 4.54-2.464 6.814-3.677.88-.47 1.736-.999 2.631-1.437.532-.26 1.026-.574 1.551-.842 1.154-.589 2.293-1.19 3.466-1.745.726-.344 1.44-.803 2.28-.703.343.04.615.254.824.528.404.53.693 1.195.968 1.794.748 1.627 1.697 3.15 2.567 4.712.627 1.126 1.43 2.263 1.812 3.505.073.237.279.738.244.986-.02.143-.086.16-.188.245-.193.136-.406.23-.641.285l-.723.334c-.707.34-1.392.745-2.09 1.104-.976.503-1.964.98-2.925 1.512a160.78 160.78 0 0 0-4.278 2.466c-.853.508-1.7 1.02-2.563 1.512-.537.306-1.023.595-1.613.785-.392.125-.745.254-1.048.551-.508.499-.81 1.172-1.288 1.694-.546.596-1.213 1.075-1.925 1.45-1.16.609-2.504.734-3.741 1.129-1.634.521-3.143 1.232-4.63 2.07a36.67 36.67 0 0 1-2.61 1.341c-.78.361-1.504.82-2.281 1.19-.811.386-1.65.674-2.464 1.063-.691.33-1.405.632-2.129.882-.795.275-1.635.367-2.445.585-1.467.394-2.913.916-4.233 1.673-1.047.601-2.09 1.273-3.184 1.783-.429.2-.86.395-1.287.601-.66.32-1.217.794-1.824 1.2-.743.494-1.542.889-2.404 1.123-1.024.278-2.097.192-3.125.464a18.524 18.524 0 0 0-3.262 1.169 73.592 73.592 0 0 1-3.313 1.473c-1.297.537-2.643.96-3.957 1.455-.532.2-1.107.397-1.623.633-.242.11-.43.261-.713.222-.335-.046-.54-.265-.688-.554-.35-.678-.593-1.38-.835-2.102a40.195 40.195 0 0 0-1.774-4.37" fill="#B9C0C9" mask="url(#b)"/>
    </g>
    <g fill="#858D97">
      <path d="M23.685 38.257c.03 0 .062-.003.092 0 .089.01.142-.01.142-.118-.001-.104-.008-.18-.144-.163-.076.01-.157-.011-.228.007-.04.01-.084.07-.09.113-.011.066-.034.161.09.16h.138m9.98-2.207c.016-.188-.072-.274-.176-.2-.106.077-.23.165-.279.3-.015.04.028.104.045.157.045-.025.128-.047.13-.074.006-.11.067-.108.148-.116.054-.006.104-.052.133-.067m-3.99.279c0-.076.014-.156-.007-.226-.01-.035-.082-.061-.13-.071-.039-.008-.083.015-.125.025.04.021.085.037.12.065.071.058.073.128-.001.183-.044.032-.113.033-.151.07-.039.035-.053.097-.078.147.048.021.096.057.146.06.221.016.222.012.225-.208v-.045m-8.638.842c0 .03.002.06 0 .091-.01.105.008.164.141.165.141.001.135-.072.14-.17.004-.1.02-.202.049-.299.009-.03.076-.043.117-.064-.057-.01-.117-.038-.17-.027-.202.044-.275.131-.277.304m9.17-.864c-.031 0-.063-.006-.092.001-.055.012-.152.03-.154.049a.943.943 0 0 0 .032.304c.006.02.112.023.168.014.038-.007.07-.071.105-.073.145-.005.168-.088.152-.206-.02-.15-.14-.064-.212-.09m6.157-2.043c.004.142-.057.317.209.286.108-.013.057.113.07.179l-.172.032c.057.1-.157.14-.052.26.084.093.057.166-.078.171-.108.004-.218-.008-.325.006a.17.17 0 0 0-.113.093c-.097.266-.094.268.175.274.314.007.312.007.288.36-.004.058-.007.141.027.171.125.11.02.17-.022.265-.095.217-.173.304-.371.318-.015.001-.035-.006-.046.001-.102.065-.33-.133-.319.111.006.142.203.058.312.07.089.01.144.017.14.124-.006.155.003.31-.004.464-.002.054-.021.141-.054.153-.09.031-.14-.02-.133-.122 0-.002-.068-.024-.085-.012-.265.201-.324.246-.499.228-.171-.018-.385-.026-.495-.129-.108-.102-.112-.279-.123.022-.003.113-.067.108-.148.114-.132.01-.32-.085-.343.162-.052-.007-.107-.01-.157-.026-.01-.003-.006-.057-.003-.087.007-.087-.006-.146-.117-.146-.105 0-.18.007-.167.146.004.042-.038.115-.075.129-.05.018-.166-.005-.167-.016-.012-.2-.214-.216-.31-.331-.025-.03-.036-.07-.053-.106-.013.04-.018.089-.043.12-.024.03-.073.037-.106.06-.191.138-.196.14-.1.393.046.121.019.172-.11.164-.146-.008-.277-.017-.246.207.01.073-.218.116-.251.037-.072-.172-.195-.238-.362-.24-.103-.003-.096-.067-.133-.134-.057-.103-.194-.084-.263.045-.067.122-.118.116-.19.026-.035-.044-.042-.11-.077-.152-.086-.102-.191-.093-.252.033-.064.134-.035.336-.29.295-.03-.005-.051.187-.19.182-.008 0-.021.05-.028.078-.014.056-.025.113-.037.17-.021-.045-.042-.092-.066-.137-.007-.013-.02-.031-.032-.031-.216-.004-.432-.005-.648-.007-.143.332-.435.137-.658.183-.159.034-.242-.007-.248-.21-.002-.086-.174-.177-.281-.246-.033-.021-.108.024-.164.038.022.047.044.135.066.136.16.001.116.114.113.196-.002.03-.049.085-.073.084-.078-.003-.187.057-.206-.099-.014-.117-.277-.088-.188-.29.002-.003-.087-.065-.133-.065-.046 0-.119.032-.135.07-.045.105-.06.222-.101.33-.011.028-.092.063-.1.055a.284.284 0 0 1-.078-.132c-.009-.039.01-.118.027-.121.276-.048.115-.262.15-.398.006-.022-.044-.079-.073-.083-.033-.004-.085.024-.105.054-.04.059-.098.132-.09.191.028.205-.077.215-.237.224-.068.003-.162.158-.21.04-.031-.076-.149-.273.083-.333.036-.01.065-.083.076-.131.008-.039-.013-.119-.027-.12a.292.292 0 0 0-.157.028c-.118.063-.102.182-.088.285.019.142-.026.214-.168.256-.051.015-.071.12-.115.177-.082.105-.273.096-.37-.015-.024-.027-.039-.062-.058-.093-.012.026-.018.057-.036.077-.13.141-.264.272-.472.136-.15-.1-.313-.032-.335.09-.03.166-.301.15-.227.375.02.058-.048.029-.085-.032-.082-.139-.097-.135-.18-.002-.084.136-.143.28-.335.097-.049-.047-.221-.02-.298.031-.185.121-.205.038-.207-.122 0-.03-.035-.061-.055-.092-.011.026-.025.051-.034.078-.005.014 0 .031-.001.047-.019.354-.022.352-.349.33-.11-.007-.114-.06-.12-.145-.002-.047-.047-.09-.073-.136-.036.035-.086.064-.105.107-.025.06.036.168-.089.17-.08 0-.187.047-.197-.11-.007-.095-.057-.092-.09 0a.473.473 0 0 1-.051.107c-.174-.061-.432.17-.538-.156-.017-.054-.15-.052-.15.064.001.123-.004.2-.166.193-.368-.016-.738-.014-1.107-.02-.147-.151-.12-.002-.12.075-.001.04.017.086.04.121.092.146-.04.091-.09.098-.135.02-.252-.186-.369-.078-.106.098-.145.02-.211-.014-.146-.072-.16-.172-.039-.278.149-.13.152-.17.023-.279-.114-.096-.127-.127-.003-.176.11-.045.086-.11.086-.176-.001-.038-.026-.097-.054-.107-.032-.011-.095.008-.118.036-.044.055-.057.136-.105.184-.032.032-.102.026-.155.037.002-.084-.029-.212.013-.242.087-.065.213-.076.32-.115.038-.013.068-.042.102-.064-.031-.04-.057-.086-.094-.119-.153-.134-.352-.128-.515-.084-.224.062-.206-.23-.378-.207.012-.027.028-.079.034-.078.158.03.087-.131.152-.18.064-.048.07-.087-.028-.104-.066-.012-.163-.024-.186-.068-.053-.1-.073-.218-.095-.33-.003-.015.06-.055.097-.062.06-.01.13.013.183-.008.039-.015.077-.079.08-.123.003-.032-.068-.063-.081-.102-.048-.143.012-.23.158-.233.108-.003.216.002.325-.003.022-.001.044-.03.066-.047-.025-.015-.05-.041-.075-.042-.158-.003-.108-.123-.101-.199.003-.03.08-.057.126-.08.047-.026.14-.045.14-.068 0-.213.22-.106.3-.207.02-.024.163-.046.167.077.003.077.053.194-.105.199-.057.001-.154.017-.16.043a.627.627 0 0 0-.003.274c.006.028.103.053.155.046.042-.005.09-.052.113-.093.026-.049.027-.112.039-.169.022.046.035.1.068.134.027.027.08.036.121.037.018 0 .05-.039.052-.062.006-.093-.003-.186.004-.278.003-.041.029-.08.045-.12l.046.12c.005.013.01.035.02.037.215.042.429.095.646.116.113.01.038-.053.018-.106-.043-.118.038-.255.145-.254.033 0 .08.064.096.108.024.062-.028.18.096.16.097-.016.248.112.289-.114.018-.103.104-.092.176.014.041.06.07.139.127.177.066.045.144.04.153-.077.005-.057.006-.15.038-.164.09-.041.216.012.28-.105.018.02.04.038.051.062.095.212.135.237.373.209.033-.004.083-.044.087-.072.005-.034-.022-.084-.051-.108-.031-.026-.08-.029-.121-.042.034-.018.067-.037.101-.054.102-.052.092-.267.287-.188.08.032.22.01.244.058.068.134-.097.102-.147.156-.032.036-.04.12-.022.17.012.037.079.071.126.08.203.037.408.06.61.1.037.008.062.076.094.116.074.093.112.09.185-.017.032-.048.05-.125.093-.143.112-.046.165-.126.23-.223.086-.129-.116-.159-.05-.272.038-.065.015-.168.12-.05.017.018.053.025.08.026.139.004.318-.046.403.023.074.059.034.252.058.384.004.025.066.048.105.055.021.004.06-.02.07-.042.014-.024.008-.06.005-.09-.013-.205-.01-.395.254-.45.032-.007.045-.1.067-.153.017.052.028.107.053.154.023.044.054.1.094.115.055.02.123 0 .184.006.13.015.205-.013.19-.168-.003-.034.062-.074.096-.112.028.043.073.083.08.13.015.074-.008.156.01.23.009.04.064.094.104.1.064.009.183.039.165-.084-.03-.194.07-.2.214-.192.185.009.37 0 .557.004.022 0 .044.031.067.047-.025.015-.049.038-.075.042-.046.007-.096-.009-.139.004-.085.026-.252-.087-.237.102.006.063.137.149.223.167.133.029.277.012.416.004.032-.002.093-.055.088-.068-.055-.173.242-.316.043-.5-.008-.006.02-.074.032-.075a5.67 5.67 0 0 1 .417-.001c.023 0 .045.03.068.047-.025.014-.049.037-.075.041-.046.007-.12-.015-.134.006a.352.352 0 0 0-.06.193c0 .029.092.087.122.076.116-.041.232-.093.332-.164.067-.048.106-.133.158-.202.12.097.28-.037.372.03.163.12.328.032.488.057.027.005.064-.071.1-.105.022-.02.071-.045.076-.039.103.115.237.026.349.06.048.014.127.054.126.079-.009.186.077.28.254.31.014.002.036.056.027.076a.196.196 0 0 1-.076.087c-.023.014-.06.004-.091.003-.117-.008-.12.075-.104.15.01.047.053.12.082.121a.291.291 0 0 0 .189-.063.379.379 0 0 0 .093-.19c.02-.087-.015-.23.03-.258.08-.05.202-.035.307-.038.123-.003.29-.048.36.014.169.153.273.049.32-.069.066-.166.197-.194.327-.22.12-.023.247-.012.37-.003.33.022.328.025.333-.26.003-.16-.056-.371.238-.304.055-.269.267-.166.428-.18.094-.008.195-.014.17.135.031 0 .076.013.09-.003.035-.037.043-.105.082-.13.24-.15.24-.148.294-.393.006-.027.03-.05.045-.074.015.024.04.047.044.074.008.045 0 .092.003.139.012.256.012.258.286.25.057-.002.113-.024.17-.037-.065-.018-.132-.03-.192-.057-.032-.015-.072-.056-.073-.086-.001-.032.035-.087.064-.094.169-.038.241.016.306.184.015.04.076.08.12.085.03.004.07-.08.102-.076.201.018.265-.074.241-.262-.005-.037.028-.08.043-.12.016.04.02.098.05.116a.374.374 0 0 0 .19.063c.03 0 .072-.075.083-.121.028-.121-.033-.16-.152-.156-.04.001-.082-.054-.124-.084.039-.032.072-.076.117-.095.105-.045.215-.078.323-.116.065-.023-.033-.172.096-.13.023.008.011.112.022.17.022.12.119.06.185.074"/>
      <path d="M37.403 35.191l-.185.027c.056.045.112.088.166.134.007.007-.002.03.001.044l.043.164c.062-.03.134-.05.184-.094.037-.033.039-.103.068-.149.033-.053.14-.108-.02-.125-.06-.006-.12 0-.257 0m7.637-2.069c-.075.031-.208.054-.214.094-.027.194.136.09.219.116.108.033.216.065.326.091.023.005.052-.017.078-.027-.025-.021-.048-.055-.077-.061-.128-.03-.125-.285-.332-.213m1.546-.254c-.046.04-.19-.068-.182.089.003.05.11.102.178.14.047.028.11.05.161.044.042-.005.105-.053.11-.089.01-.062.05-.16-.064-.182-.059-.011-.121-.002-.203-.002m-3.388.743c.122 0 .244-.004.365.001.089.005.142-.012.14-.118 0-.1-.002-.18-.14-.164-.115.013-.247.033-.254-.15 0-.003-.136-.018-.143 0-.049.117-.09.24-.112.364-.026.157.029.189.144.067m1.8-1.3c-.045 0-.091.003-.136-.001-.088-.008-.147.01-.14.117.008.104-.017.22.022.31.027.062.138.089.211.13.031-.12.19-.057.246-.208.123-.327.135-.348-.203-.348m2.062.054c.071-.102.142-.168.165-.247.021-.074-.157-.257-.215-.274-.198-.058-.133.26-.317.215-.006.028-.025.076-.017.08.114.073.233.14 1.484.128 0-.062.01-.111-.003-.153-.012-.032-.049-.063-.082-.079-.02-.009-.075.012-.077.023-.028.241-.213.157-.342.155-.129-.001-.155.05-.149.162.002.039-.027.08-.041.12-.017-.039-.035-.076-.049-.114-.046-.13-.155-.05-.234-.064a.448.448 0 0 0-.044.132c-.027.137.059.142.161.143.07.001.194.019.2.047.016.085.022.143.129.137.129-.007.252.028.298-.172.029-.125.306-.129-.867-.239m-7.91 2.547c.238.11.275-.197.45-.218.006-.226.178-.136.293-.154 0 .015-.004.032.001.045.005.013.025.034.03.032.181-.086.358-.182.479.093.011.026.175.082.243-.079.05-.118.013-.192-.003-.294-.022-.145-.064-.226-.138-.162-.092.08-.222.134-.279.078-.135-.135-.285-.06-.426-.085.019-.128-.01-.211-.166-.186-.15.025-.24-.008-.207-.192.033-.181-.033-.35-.088-.519-.01-.032.025-.08.039-.12.017.036.032.074.051.11.013.025.028.065.048.069.187.035.375.074.564.093.182.017.115-.056.044-.138-.024-.026-.007-.089-.006-.135.002-.074.018-.114.097-.049.031.026.104.02.115.047.077.176.257.135.373.201.232.133.282.051.347-.142.032-.093.114-.082.178-.017.103.105.347.239.45.233.039-.003.075-.035.112-.053-.12-.121.163-.212.024-.356-.034-.035.07-.18.063-.27-.014-.18.097-.15.203-.156.123-.009.075-.11.08-.177.007-.114.137-.122.143-.085.026.16.286.162.232.363-.005.021.023.051.035.077.019-.017.052-.033.053-.052.006-.077.022-.16 0-.23-.069-.206.15-.145.206-.233.002-.001.074.034.072.04-.023.083-.056.163-.082.245-.04.125.007.193.147.241.046.016.093.05.122.09.035.048-.057.157.065.163.02 0 .03-.123.069-.146.072-.041.135-.023.15.088.02.146.144.064.222.074.01.002.043-.096.052-.15.017-.106-.045-.133-.137-.12-.089.01-.142-.01-.143-.12 0-.108.016-.189.148-.158.18.041.101-.155.19-.197.152-.072.28-.152.23-.365-.01-.046.067-.143.126-.17.198-.09.534.012.702.196.091.1.186.097.279-.006.033-.038.066-.102.103-.105.138-.01.278-.01.413.012.024.004.035.133.04.205.015.242.02.205.247.254.203.043.371-.204.565-.033.047-.099.245-.039.217-.23-.023-.152-.064-.355.226-.316.034.004.13-.144.12-.211-.015-.116-.069-.298-.146-.32-.142-.042-.117-.121-.11-.203.01-.155.135-.077.211-.09.076-.01.157.01.23-.006.043-.01.074-.065.114-.096.04-.031.084-.057.127-.085.02.036.044.07.056.108.01.028.005.062.001.093-.015.144.007.275.144.354.049.028.332-.134.416-.22.027-.028.072-.037.109-.057.025-.014.05-.03.074-.045-.104-.078-.198-.177-.313-.227-.107-.047-.16.024-.155.146.002.04-.048.116-.082.12-.122.018-.098-.082-.098-.153 0-.06.008-.12.013-.18.176.03.137-.226.318-.227a.36.36 0 0 0 .355-.25c.03-.085.12-.177.254-.065.058.049.173.023.256.05.041.013.101.072.098.105-.014.153.058.18.19.175.03-.001.062.072.094.111-.033.023-.064.048-.099.068-.011.006-.031-.003-.045.001-.077.024-.194-.064-.227.078-.027.119.02.232.122.267.118.04.183.082.156.212-.066.014-.169-.045-.183.073-.01.088-.006.253.016.257.187.037.167.269.324.32.014.004.03.002.046 0 .066-.01.168.036.166-.09 0-.066.04-.193-.065-.181-.264.03-.211-.14-.211-.286.165.019.248-.063.283-.219.006-.026.069-.058.102-.054.03.003.074.051.076.082.008.138.01.278.002.416-.01.167.017.3.213.336.027.005.063.064.062.096-.002.03-.057.087-.074.082-.2-.062-.21.295-.425.19l-.04.246h.063c.018-.277.23-.113.35-.15.09-.028.139.021.132.123-.006.092-.032.201.006.273.057.11.151.214.052.319-.06.064-.184.068-.277.104-.13.052-.356-.08-.376.19-.05-.017-.108-.023-.146-.053-.029-.023-.03-.078-.045-.119-.017.036-.04.07-.05.109-.029.116-.12.059-.187.072-.02-.087-.086-.227-.055-.254.159-.136-.043-.203-.038-.303.127 0 .098-.1.09-.164-.019-.151.14-.081.174-.151.016-.033.002-.117-.006-.118-.232-.032-.157-.208-.164-.343-.004-.075.013-.165-.105-.151-.14.016-.192-.037-.176-.177.01-.09.006-.184 0-.276-.004-.033-.035-.065-.054-.097-.012.025-.034.05-.036.076-.004.092.004.185-.004.276a.165.165 0 0 1-.061.1c-.032.026-.079.032-.119.046.037.017.075.031.11.05.115.062.11.115.001.188-.16.11-.155.145.01.276.092.075.109.14-.02.185-.05.017-.122.084-.063.075.19-.025.09.229.238.205-.002.128-.103.073-.165.096-.044.017-.077.063-.114.097.027.028.05.06.08.085.03.023.064.038.096.057-.026.012-.057.02-.077.038-.036.034-.066.075-.099.113.047.024.092.065.14.068.139.01.278.003.417.003-.03.065-.066.128-.092.194-.05.13-.111.116-.187.023-.139-.171-.23-.17-.372-.008-.076.087-.241.101-.194.29.016.06-.204.096-.258.013-.036-.056-.012-.136-.124-.145-.097-.008-.202-.1-.284-.078-.141.036-.032.187-.072.275-.018.04-.083.084-.124.082-.126-.008-.155.044-.153.16.004.216-.088.032-.14.04a.363.363 0 0 0-.216.131c-.02.026.04.132.084.182.035.039.106.042.154.072.018.011.027.053.025.079-.002.026-.023.073-.037.073-.215.007-.431.011-.647.006-.02 0-.052-.068-.054-.105-.007-.124.006-.249-.009-.37-.004-.031-.085-.072-.13-.072a.274.274 0 0 0-.136.063c.038.105-.117.3.137.312.016 0 .028.076.043.116-.184.045-.184.285-.356.336-.052.016-.136.01-.17-.023-.034-.032-.051-.129-.027-.166.13-.202.112-.33-.148-.372-.018-.003-.028-.048-.043-.073l-.056-.096c-.012.026-.034.052-.035.078-.004.093.005.186-.005.278-.003.035-.038.088-.066.093-.034.007-.112-.03-.11-.043.016-.146-.078-.143-.175-.137-.09.006-.184.001-.268.029-.025.008-.027.109-.026.167.004.163-.068.27-.233.264-.142-.005-.155.07-.139.17.03.172-.281.078-.21.276-.024-.022-.05-.042-.07-.066-.025-.03-.04-.071-.07-.095-.032-.025-.075-.034-.113-.05.04-.015.082-.026.12-.046.112-.056.064-.158.047-.237-.005-.024-.104-.032-.162-.038-.025-.003-.078.019-.078.024.046.326-.28.217-.402.344-.02.02-.06.02-.075.04-.028.041-.045.09-.067.136-.012-.041-.013-.11-.038-.12-.146-.057-.296-.13-.447-.137-.096-.005-.24.071-.284.153-.074.14.12.082.162.148.038.06.103.127.1.188-.005.126.055.151.156.167.018.003.033.078.033.12 0 .016-.043.046-.067.047-.17.004-.34.004-.51 0-.024 0-.069-.042-.067-.047.157-.325-.285-.134-.284-.335 0-.188-.297-.126-.31-.331 0-.013-.196-.03-.295-.012-.026.005-.034.133-.042.206-.017.164.011.29.208.342.105.028.093.106-.008.18-.07.05-.146.096-.198.161-.202.251-.535.287-.744.072.056-.244-.293-.166-.302-.382-.003-.07-.22-.055-.254.032-.043.106-.06.222-.1.33-.01.03-.063.052-.1.062-.02.005-.073-.03-.072-.036.064-.216-.193-.248-.235-.41-.018-.066-.122-.178-.21-.078-.054.062-.084.172.055.255.154.092.142.2.005.271-.127.065-.231.146-.401.03-.176-.12-.362.016-.524.117.024.232-.223.065-.247.16-.023.088.21.064.158.229-.023.07.004.155-.008.23-.005.028-.058.056-.094.068-.02.006-.067-.015-.074-.034-.04-.107-.083-.216-.103-.328-.017-.09.002-.185-.007-.277-.003-.036-.04-.096-.063-.097-.152-.004-.305.005-.458.01-.06.265-.275.157-.432.168-.228.016-.226.008-.254.243-.005.038-.045.072-.068.108-.07-.046-.142-.088-.204-.143-.01-.008.034-.108.046-.106.149.016.137-.081.136-.176-.001-.186-.008-.372.002-.557.01-.145-.006-.282.068-.436a.582.582 0 0 0-.032-.525c-.042-.07-.027-.174-.038-.262.064-.062.119-.156.195-.18.218-.068.31-.196.27-.42-.025-.135.055-.146.161-.146.11 0 .122.057.118.145-.005.108.005.217-.005.324-.002.032-.051.09-.071.087-.273-.041-.2.155-.201.292-.001.057.024.113.037.17.018-.05.037-.1.052-.15.009-.028-.001-.069.015-.086.066-.07.381-.045.45.036.024.03.034.073.05.11.015-.04.018-.1.046-.117.058-.034.133-.04.195-.068.033-.015.074-.054.076-.084.002-.032-.037-.067-.063-.098-.006-.008-.031.004-.045-.002-.085-.034-.229.09-.258-.093-.036-.222.098-.462.29-.518.022-.007.077.018.078.032.006.092-.003.186.005.278.007.07.01.177.053.201.097.056.219.097.327.09.062-.003.152-.105.168-.176.027-.121-.092-.078-.158-.093-.038-.01-.072-.033-.108-.05.04-.014.089-.018.12-.043.091-.073.097-.123-.025-.19-.129-.07-.147-.244-.049-.264.302-.06.205-.283.232-.464.006-.038.07-.068.106-.102.025.03.073.062.071.09-.008.127.01.21.17.194.034-.004.09.053.11.094.05.1.098.184.23.184.017 0 .052.074.046.108-.005.028-.055.055-.09.07-.026.012-.06.002-.092.003-.127.003-.095.103-.086.167.006.04.057.093.098.107.056.018.123 0 .184.006.027.003.052.024.077.037-.018.018-.036.05-.056.052-.137.013-.284-.047-.355.167-.023.07-.235.07-.354.12-.032.013-.037.093-.055.142.17.038.215.33.456.224.005.116-.026.232.088.332.057.05-.073.244.12.22.132-.018.04-.153.072-.227.083-.195-.16-.197-.187-.325M32.369 29.364c0-.124-.004-.248.001-.371.005-.11-.054-.119-.142-.122-.047-.002-.13-.045-.13-.072-.003-.075-.063-.195.094-.205.027-.001.052-.024.077-.037-.019-.018-.037-.05-.056-.051-.093-.006-.197-.03-.276.002-.225.092-.196-.24-.374-.207.002-.022.004-.063.006-.063.247-.005.134-.191.147-.304.015-.137-.003-.278.014-.414.026-.212-.021-.295-.204-.318-.067-.008-.171.042-.176-.08-.002-.077-.05-.181.104-.204.11-.016.093-.268.288-.183.014.006.045-.029.068-.045-.025-.015-.049-.04-.075-.043-.061-.006-.13-.018-.184.001-.213.077-.204-.132-.27-.22-.083-.11-.026-.23.085-.31.053-.04.153-.068.159-.11.016-.118-.007-.24-.015-.36-.259-.02-.107-.441-.416-.425-.029.002-.063-.12-.098-.182-.069-.123.079-.355-.19-.377-.055-.132-.001-.317.126-.437.067-.062.06-.157-.015-.181-.11-.035-.225-.055-.331-.097-.103-.04-.1-.115 0-.182.032-.022.07-.036.106-.053-.041-.014-.09-.018-.12-.044-.03-.023-.06-.071-.055-.104.003-.03.05-.06.084-.076.025-.012.081.009.089-.005.064-.115.324-.004.278-.212-.03-.136-.186-.04-.282-.064-.056-.015-.153-.015-.162-.043-.047-.152-.144-.345-.09-.46.092-.188.09-.311-.006-.492-.069-.128.084-.112.17-.123.03-.003.056-.038.084-.059-.027-.01-.054-.032-.08-.03-.13.016-.21-.017-.184-.169.018-.1.043-.201.051-.303.012-.145.058-.312.004-.43-.054-.121-.03-.116.062-.12.031-.002.07.011.091-.004a.194.194 0 0 0 .068-.095c.006-.02-.03-.074-.032-.074-.1.037-.187-.19-.292-.014-.004.006-.03 0-.045 0-.128-.002-.094-.1-.09-.166.006-.077-.059-.198.098-.205.047-.002.094-.006.14.001.136.023.2-.022.258-.16.055-.13.178-.147.346-.086.145.053.141.207.262.244.11.034.236.04.328.1.088.056.098.153-.048.18-.027.006-.051.025-.077.037.017.019.032.046.053.053.028.01.062.007.092.002.179-.033.271.046.382.195.18.242.205.223.207.42v.138c0 .031-.01.067.003.092.017.033.058.084.08.08.242-.05.217.13.188.251-.025.104.14.289-.127.321-.085.01-.02.075.046.084.058.007.154.01.163.037a.35.35 0 0 1-.008.214.712.712 0 0 1-.135.21c-.024.028-.077.033-.117.049.04.015.092.02.117.049.034.038.045.096.07.144.023.045.043.11.082.128.249.118.266.236.063.47-.016.018-.003.06-.004.09.146-.023.139.073.137.17-.002.124.01.249-.003.371-.018.16.023.238.199.207.022-.003.074.05.077.08.002.032-.03.076-.06.1-.156.13-.146.12-.007.284.075.09.179.27.143.322-.166.246.005.266.165.337.076.034.075.143-.022.17-.142.039-.156.008-.014.11.115.085.186.283.17.463-.01.123-.116.057-.175.084-.042.02-.069.072-.102.11.031.024.059.06.094.07.187.06.254.134.156.245-.132.148.03.211.025.31-.006.125.028.178.157.215.1.029.18.163.119.261-.101.16-.067.274-.006.442.088.242-.097.484-.11.736 0 .013-.086.01-.118.035-.07.054-.051.148.03.173.11.034.222.062.332.094.144.041.214.13.145.235-.143.215-.078.44-.063.658.014.223-.024.308-.216.314-.062.002-.125.007-.186-.001-.144-.02-.188.042-.179.18.002.03-.07.066-.107.1-.024-.031-.071-.064-.07-.093.01-.13-.028-.163-.166-.2-.141-.038-.23-.241-.43-.173-.008.003-.034-.02-.033-.022.086-.218-.233-.228-.212-.417.013-.123.002-.247.002-.371M42.05 22.93c-.47.022-.29-.084-.285.153.026-.014.057-.023.078-.042.037-.034.072-.11.1-.106.249.032.113-.093.089-.188-.033-.13-.276-.136-.19-.33-.057-.015-.112-.037-.168-.043-.116-.013-.107.07-.111.149-.002.041-.025.081-.038.122-.018-.035-.042-.068-.051-.106-.016-.065.032-.152-.093-.17-.113-.016-.168-.094-.194-.214-.02-.093-.163-.083-.165-.018-.008.183-.125.15-.221.14-.116-.014-.062-.118-.07-.185a.588.588 0 0 1-.001-.14c.01-.093-.019-.135-.123-.141-.067-.004-.13-.075-.196-.075-.064 0-.125.06-.192.076-.037.009-.083-.018-.125-.028.023-.033.068-.069.064-.098-.02-.157.183-.127.185-.192.007-.182.124-.126.22-.147.08-.017.11-.218.037-.256-.034-.018-.115.007-.147.04-.114.116-.294.185-.342.096-.052-.098-.117-.138-.196-.193-.034-.024-.018-.199-.004-.202.256-.052.153-.25.166-.394.01-.123-.023-.255.009-.37.03-.107.074-.191.002-.302-.01-.017.1-.127.166-.178.134-.104.158-.203.01-.27-.133-.061-.084-.143-.085-.218 0-.024.089-.07.134-.067.142.009.373-.1.328.211-.002.016.062.058.098.06.107.008.218-.01.323.008.067.01.16.05.184.103.08.178.203.264.397.269.037 0 .105.068.102.1-.012.145.047.192.185.174.115-.015.22-.01.193.159-.016.106.048.127.139.126.009 0 .04.11.021.149-.022.045-.089.068-.136.1.053.023.143.036.15.068.02.079.019.133.126.146.111.014.277.042.311.115.063.134.125.184.263.161.01-.002.03.036.039.058.002.005-.02.03-.03.03-.062.003-.125-.004-.186.006-.019.002-.047.047-.044.068.006.04.025.083.053.111.015.016.062-.006.089.005.047.02.125.05.126.078a.38.38 0 0 1-.057.197c-.023.04-.082.057-.12.09-.026.022-.043.054-.063.082-.01-.026-.023-.053-.03-.08-.005-.014.002-.032-.002-.046-.024-.077.065-.214-.075-.224-.193-.015-.102.152-.105.236a.448.448 0 0 1-.093.29c-.008.01.051.108.086.112.122.015.248.015.37 0 .036-.003.072-.068.094-.112.025-.048.035-.105.052-.157.075.043.172.07.218.135.068.093-.023.323-.14.435-.011.01.01.073.011.073.193-.021.146.125.135.216-.01.086.092.23-.095.251-.124.014-.08.108-.085.174-.01.12.078.11.153.105.103-.008.13.04.127.135-.003.085-.005.155-.117.144-.103-.009-.161.005-.171.141-.011.157-.21.21-.257.077-.046-.128-.101-.116-.19-.127-.144-.016-.3.058-.432-.083-.047-.051-.216.072-.225.164-.003.034.029.094.057.103.123.04.25.08.378.093.106.01.12.054.123.144.001.047.04.096.071.137.03.04.073.069.11.103-.042.028-.082.074-.128.08-.077.012-.134 0-.156.112-.032.16-.177.06-.27.074-.078.011-.166.04-.198-.11-.029-.132-.223-.106-.247-.033-.092.284-.304.086-.448.14-.004-.053-.02-.15-.01-.152.189-.049.231-.2.246-.358.009-.095.041-.11.127-.142.092-.035.096-.242.019-.259-.142-.03-.26-.14-.423-.108-.123.024-.07.11-.094.17-.017.045-.065.076-.098.113-.028-.027-.066-.05-.082-.084-.028-.056-.044-.119-.064-.18.156-.038-.03-.233.178-.314.247-.096.22-.165.926-.165.732.03.856 0 .822-.228-.001-.01.1-.048.154-.048.108.001.128-.053.119-.143-.005-.046.004-.132-.002-.132-.076-.01-.217-.021-.22-.004-.053.232-.236.167-.385.19a.351.351 0 0 0-.187.098c-.034.036-.048.112-.037.164.008.04.062.086.106.099.056.017.121.004-.37.004M23.873 24.966c.133.202.133.279.116.351-.055.225-.054.273.137.297.155.02.166.076.164.199-.001.165-.003.325-.094.473-.065.107-.109.114-.187.016-.124-.157-.112-.142-.283-.007-.105.083-.252.114-.383.162-.017.006-.072-.029-.07-.04.01-.081-.064-.186.062-.236.038-.015.076-.032.115-.049-.04-.014-.082-.044-.121-.041-.117.009-.172-.027-.157-.153.01-.091 0-.184.011-.275.006-.047.165-.104-.01-.13-.08-.01-.2-.042-.186.117.003.03-.002.062 0 .093.013.11-.013.174-.146.162-.122-.012-.247-.006-.37-.001-.042.002-.107.012-.12.038-.03.061-.005.166-.12.144-.144-.027-.07-.147-.076-.225-.012-.138.004-.279-.009-.417-.003-.036-.067-.074-.11-.097-.05-.025-.155-.032-.156-.05-.004-.103.015-.207.027-.311.18.053.113-.27.33-.207.144.041.087-.117.097-.194.003-.023-.026-.07-.042-.07-.041-.002-.097.002-.122.028-.043.045.007.159-.117.153-.138-.006-.283.019-.413-.015-.06-.015-.09-.14-.134-.214.036-.017.076-.053.108-.047.113.022.221.067.334.083.032.005.1-.058.105-.097.009-.062.046-.167-.077-.174-.123-.007-.248.003-.371-.004-.036-.003-.091-.034-.098-.062a.136.136 0 0 1 .04-.116c.057-.043.127-.065.19-.099.047-.024.09-.051.136-.077-.03-.05-.062-.098-.088-.15-.042-.086-.246-.009-.192-.19-.162-.115.046-.222.008-.344-.023-.075-.004-.225.042-.248.127-.061.278-.08.42-.099.024-.003.085.078.083.118-.004.12.034.163.157.158.153-.006.364-.072.318.222-.002.012.071.053.107.05.246-.018.384.12.522.302.146.193.263.355.293.569.01.073-.01.14.105.16.094.016.26.106.255.13-.038.161.125.257.107.402-.006.046 0 .093-.137.012-.182-.178-.228-.186-.271-.176-.052.01-.1.036-.15.056.034.06.054.154.104.175.09.039.197.039.297.04.02 0 .052-.058.061-.094.038-.14-.004-.18-.041-.001"/>
      <path d="M46.64 31.448c-.088.056-.138.116-.187.115-.122-.003-.167.04-.151.159.02.152-.092.136-.177.122a.518.518 0 0 1-.235-.094c-.082-.067-.098-.144.043-.184.144-.04.083-.064-.011-.092-.132-.04-.117-.113-.021-.183.033-.024.095-.018.116-.046.046-.062-.06-.185.069-.211.022-.005.055.128.106.158.083.05.19.059.28.101.051.024.088.08.167.155M36.426 34c.01.012.03.024.029.034-.01.093.023.158.12.13.034-.01.048-.092.067-.142.035-.092.06-.19.105-.277.014-.026.077-.035.118-.036.018 0 .051.037.053.06.004.06.006.168-.01.172-.24.051-.163.236-.175.385-.003.041-.028.08-.043.12-.016-.038-.036-.075-.047-.114-.032-.111-.122-.07-.188-.066-.08.003-.109-.016-.092-.096.012-.056.02-.114.032-.17 0-.003.02 0 .03 0"/>
    </g>
  </g>
</svg>
